<?xml version="1.0" standalone="no"?>
<!DOCTYPE svg PUBLIC "-//W3C//DTD SVG 20010904//EN"
 "http://www.w3.org/TR/2001/REC-SVG-20010904/DTD/svg10.dtd">
<svg version="1.0" xmlns="http://www.w3.org/2000/svg"
 width="512.000000pt" height="512.000000pt" viewBox="0 0 512.000000 512.000000"
 preserveAspectRatio="xMidYMid meet">
<metadata>
Created by potrace 1.14, written by Peter Selinger 2001-2017
</metadata>
<g transform="translate(0.000000,512.000000) scale(0.100000,-0.100000)"
fill="#000000" stroke="none">
<path d="M1085 5109 c-405 -52 -757 -353 -905 -774 -62 -178 -86 -426 -60
-622 51 -381 296 -741 619 -910 l71 -37 0 -332 0 -332 -30 -6 c-17 -3 -42 -18
-55 -32 l-25 -27 0 -736 c0 -809 -1 -789 61 -914 86 -170 309 -292 499 -272
208 22 378 154 453 352 22 58 22 63 25 803 3 678 2 748 -13 776 -16 31 -51 54
-80 54 -13 0 -15 49 -15 335 l0 335 68 34 c375 189 632 636 632 1103 0 115
-31 298 -71 417 -122 366 -419 660 -762 755 -135 38 -271 47 -412 30z m295
-213 c93 -20 215 -69 287 -116 210 -138 373 -379 430 -636 14 -60 18 -121 17
-254 -1 -156 -4 -186 -27 -273 -85 -318 -307 -572 -591 -676 l-71 -27 -3 -407
-2 -407 -200 0 -200 0 -2 406 -3 406 -89 33 c-235 89 -437 297 -540 558 -96
242 -94 559 4 804 88 220 266 422 455 515 58 29 162 65 226 77 69 14 238 12
309 -3z m-93 -3106 c52 -31 67 -65 64 -143 -1 -16 -15 -42 -34 -63 -26 -29
-42 -37 -80 -41 -60 -7 -99 9 -131 56 -82 118 59 266 181 191z m9 -971 c37
-23 57 -64 56 -119 -2 -99 -115 -162 -200 -110 -64 39 -89 118 -58 178 40 78
123 99 202 51z"/>
<path d="M855 4512 c-71 -45 -164 -143 -205 -215 -65 -113 -113 -328 -89 -396
21 -60 96 -80 144 -38 23 19 28 34 36 101 21 191 91 314 228 400 22 14 46 35
55 48 24 34 20 85 -9 113 -37 38 -86 33 -160 -13z"/>
<path d="M2829 5031 c-112 -45 -206 -149 -229 -254 -8 -37 -10 -247 -8 -732 4
-667 4 -681 26 -760 28 -100 89 -230 146 -309 114 -159 321 -306 544 -386 l62
-23 0 -289 0 -288 -24 -10 c-13 -4 -33 -21 -45 -36 -21 -27 -21 -27 -21 -753
0 -612 3 -736 15 -790 62 -260 318 -433 583 -393 205 32 374 185 427 389 13
48 15 173 15 786 0 799 2 774 -60 795 l-30 11 0 290 0 289 53 18 c296 98 553
321 658 573 68 164 70 182 67 943 l-3 683 -27 57 c-34 73 -98 137 -174 174
-53 26 -69 29 -159 29 -89 0 -106 -3 -156 -28 -70 -34 -142 -109 -177 -185
l-27 -57 -5 -625 c-4 -450 -8 -632 -17 -651 -14 -31 -71 -99 -84 -99 -4 0 -10
307 -11 683 l-3 682 -23 57 c-30 75 -96 147 -174 189 -60 33 -67 34 -168 34
-100 0 -108 -1 -168 -34 -72 -39 -120 -88 -159 -163 l-28 -53 -3 -697 c-1
-384 -6 -698 -11 -698 -18 0 -63 44 -84 83 -22 42 -22 45 -27 667 l-5 625 -31
65 c-37 78 -99 141 -173 178 -73 35 -212 42 -282 13z m170 -191 c40 -11 76
-42 99 -85 15 -27 18 -98 22 -656 l5 -625 38 -76 c45 -91 112 -157 207 -202
58 -27 77 -31 170 -34 l105 -4 -3 776 c-3 754 -2 778 17 821 48 108 195 123
269 27 l27 -35 0 -795 0 -794 106 4 c98 3 110 5 181 41 131 65 217 181 238
324 5 38 10 314 10 630 0 373 4 571 11 590 24 65 107 111 174 99 43 -8 103
-59 121 -103 21 -50 20 -1226 -1 -1345 -51 -294 -268 -518 -610 -628 -38 -12
-84 -31 -101 -41 -62 -37 -64 -52 -64 -413 l0 -326 -220 0 -220 0 0 333 c0
415 11 386 -167 448 -371 130 -573 351 -612 669 -15 116 -15 1231 0 1285 18
66 83 120 149 124 8 1 30 -3 49 -9z m880 -3167 c39 -29 63 -81 57 -126 -21
-173 -268 -160 -270 14 -2 110 125 176 213 112z m-4 -963 c57 -35 80 -112 51
-168 -30 -57 -63 -77 -126 -77 -51 0 -63 4 -89 29 -65 62 -63 146 4 205 44 38
109 43 160 11z"/>
</g>
</svg>
